<?xml version="1.0" standalone="no"?>
<!DOCTYPE svg PUBLIC "-//W3C//DTD SVG 20010904//EN"
 "http://www.w3.org/TR/2001/REC-SVG-20010904/DTD/svg10.dtd">
<svg version="1.0" xmlns="http://www.w3.org/2000/svg"
 width="16.000000pt" height="16.000000pt" viewBox="0 0 16.000000 16.000000"
 preserveAspectRatio="xMidYMid meet">
<metadata>
Created by potrace 1.11, written by Peter Selinger 2001-2013
</metadata>
<g transform="translate(0.000000,16.000000) scale(0.006780,-0.006780)"
fill="#000000" stroke="none">
<path d="M1020 2073 c-163 -25 -229 -39 -310 -64 -101 -31 -262 -107 -268
-125 -2 -7 48 -13 155 -17 265 -10 505 -61 658 -140 97 -50 205 -148 187 -170
-18 -21 -193 -109 -322 -162 -128 -53 -312 -117 -560 -194 -343 -108 -452
-152 -495 -202 -47 -57 -31 -79 116 -159 103 -56 192 -137 242 -221 20 -35 56
-122 79 -193 57 -179 100 -225 179 -192 80 33 346 274 797 720 132 131 164
158 173 146 6 -9 8 -53 6 -110 -9 -173 -95 -399 -245 -643 -109 -176 -113
-187 -68 -187 31 0 175 81 259 144 89 67 229 210 284 291 150 222 225 512 194
750 -7 50 -14 99 -17 111 -4 15 8 36 41 75 80 93 132 180 159 267 14 46 26 96
26 112 l0 29 -44 -25 c-24 -13 -76 -36 -116 -49 -40 -14 -105 -39 -143 -57
l-70 -32 -25 32 c-30 39 -128 118 -195 156 -135 77 -311 117 -515 115 -75 -1
-148 -3 -162 -6z"/>
</g>
</svg>
